{"title":"The Eagle 2011 PPVRIP XviD - iLLUSiON","uid":6309545,"size":1312434025,"categoryP":"video","categoryS":"movies","magnet":"?xt=urn:btih:d3f3b9fd6a2336d7d46233e8fba95c157ca0614f&amp;dn=The+Eagle+2011+PPVRIP+XviD+-+iLLUSiON&amp;tr=udp%3A%2F%2Ftracker.openbittorrent.com%3A80&amp;tr=udp%3A%2F%2Fopen.demonii.com%3A1337&amp;tr=udp%3A%2F%2Ftracker.coppersurfer.tk%3A6969&amp;tr=udp%3A%2F%2Fexodus.desync.com%3A6969","seeders":1,"leechers":0,"uploader":".BONE.","files":4,"time":1302485856,"description":"\nMovie Info\nPlot: In Roman-ruled Britain, a young Roman soldier\nendeavors to honor his father's memory by finding his lost legion's golden emblem.\nIMDB: http://www.imdb.com/title/tt1034389/\nIMDB Rating: 6.3\nTrailer:\n\n\n\nGeneral Info\nSize: 1.19GB\nFormat: AVI\nRuntime: 1:53:34\n\n\n\nSources\nVideo - The Eagle (2011) PPVRIP IFLIX\nAudio - The Eagle (2011) PPVRIP IFLIX\n\n\n\nVideo Info\nID : 0\nFormat : MPEG-4 Visual\nFormat profile : Advanced Simple@L5\nFormat settings, BVOP : 2\nFormat settings, QPel : No\nFormat settings, GMC : No warppoints\nFormat settings, Matrix : Default (H.263)\nMuxing mode : Packed bitstream\nCodec ID : XVID\nCodec ID/Hint : XviD\nDuration : 1h 53mn\nBit rate : 1 369 Kbps\nWidth : 704 pixels\nHeight : 368 pixels\nDisplay aspect ratio : 1.913\nFrame rate : 29.970 fps\nColor space : YUV\nChroma subsampling : 4:2:0\nBit depth : 8 bits\nScan type : Progressive\nCompression mode : Lossy\nBits/(Pixel*Frame) : 0.176\nStream size : 1.09 GiB (91%)\nWriting library : XviD 58\n\n\n\nAudio Info\nID : 1\nFormat : MPEG Audio\nFormat version : Version 1\nFormat profile : Layer 3\nMode : Joint stereo\nMode extension : MS Stereo\nCodec ID : 55\nCodec ID/Hint : MP3\nDuration : 1h 53mn\nBit rate mode : Constant\nBit rate : 128 Kbps\nChannel(s) : 2 channels\nSampling rate : 44.1 KHz\nCompression mode : Lossy\nStream size : 104 MiB (8%)\nAlignment : Split accross interleaves\nInterleave, duration : 33 ms (1.00 video frame)\nInterleave, preload duration : 500 ms\n\n\nEncoders Notes\nI made a small avs script to crop, resize &amp; smoothen it.\nI then dropped that into vdubmod.\nThere i lowered the brightness,\nincreased the contrast, saturation &amp; gamma.\nThen i changed the colors with a rgb eq &amp; sharpened it.\nFinaly i re-encoded the audio &amp; muxed it to my encode.\nIts a bit blurry but thats because i used a smoother\nto remove the noise as normal de-noiser's werent working.\nDownload the sample first to check that your happy with the quality.\nNext up is the rite ppvrip.\nEnjoy the film...\n\n\nI am looking for;\nCammers, Cams, Screeners (any type), Cam audio, Line audio,\nUn-released R6's R5's R4's R2's R1's,\nA 25GB+ FTP server, A Windows Server\n&amp; a syncer.\nIf you can provide any of these please\ncontact me at &lt;a class=&quot;__cf_email__&quot; href=&quot;/cdn-cgi/l/email-protection&quot; data-cfemail=&quot;137a7f7f66607a7c7d537b66607b7e727a7f3d7e76&quot;&gt;[email&amp;#160;protected]&lt;/a&gt;&lt;script cf-hash='f9e31' type=&quot;text/javascript&quot;&gt;\n/* &lt;![CDATA[ */!function(){try{var t=&quot;currentScript&quot;in document?document.currentScript:function(){for(var t=document.getElementsByTagName(&quot;script&quot;),e=t.length;e--;)if(t[e].getAttribute(&quot;cf-hash&quot;))return t[e]}();if(t&amp;&amp;t.previousSibling){var e,r,n,i,c=t.previousSibling,a=c.getAttribute(&quot;data-cfemail&quot;);if(a){for(e=&quot;&quot;,r=parseInt(a.substr(0,2),16),n=2;a.length-n;n+=2)i=parseInt(a.substr(n,2),16)^r,e+=String.fromCharCode(i);e=document.createTextNode(e),c.parentNode.replaceChild(e,c)}}}catch(u){}}();/* ]]&gt; */&lt;/script&gt;\n\n &lt;a href=&quot;\nhttp://leetleech.org/images/40844424948677348901.jpg&quot; rel=&quot;nofollow&quot; target=&quot;_NEW&quot;&gt;\nhttp://leetleech.org/images/40844424948677348901.jpg&lt;/a&gt;\n &lt;a href=&quot;\nhttp://leetleech.org/images/56800774742877061277.jpg&quot; rel=&quot;nofollow&quot; target=&quot;_NEW&quot;&gt;\nhttp://leetleech.org/images/56800774742877061277.jpg&lt;/a&gt;\n &lt;a href=&quot;\nhttp://leetleech.org/images/63333239527183380699.jpg&quot; rel=&quot;nofollow&quot; target=&quot;_NEW&quot;&gt;\nhttp://leetleech.org/images/63333239527183380699.jpg&lt;/a&gt;\n &lt;a href=&quot;\nhttp://leetleech.org/images/28952753930154792703.jpg&quot; rel=&quot;nofollow&quot; target=&quot;_NEW&quot;&gt;\nhttp://leetleech.org/images/28952753930154792703.jpg&lt;/a&gt;\n &lt;a href=&quot;\nhttp://leetleech.org/images/16937455295471251460.jpg&quot; rel=&quot;nofollow&quot; target=&quot;_NEW&quot;&gt;\nhttp://leetleech.org/images/16937455295471251460.jpg&lt;/a&gt;","torrent":{"xt":"urn:btih:d3f3b9fd6a2336d7d46233e8fba95c157ca0614f","amp;dn":"The+Eagle+2011+PPVRIP+XviD+-+iLLUSiON","amp;tr":["udp%3A%2F%2Ftracker.openbittorrent.com%3A80","udp%3A%2F%2Fopen.demonii.com%3A1337","udp%3A%2F%2Ftracker.coppersurfer.tk%3A6969","udp%3A%2F%2Fexodus.desync.com%3A6969"],"infoHash":"d3f3b9fd6a2336d7d46233e8fba95c157ca0614f","infoHashBuffer":{"type":"Buffer","data":[211,243,185,253,106,35,54,215,212,98,51,232,251,169,92,21,124,160,97,79]},"announce":[],"urlList":[]}}